#!OML:ASF G:\JayActor3\Patient Classification 1\Patient 1\Session 6\male.ASF
:FULLY-SPECIFIED
:DEGREES
1621
root 2.16338 15.1404 -25.7864 148.436 -56.0809 -173.194
lowerback -1.21433 -5.35758 -0.651575
upperback -4.7931 -7.30785 5.17763
thorax -3.52199 -3.65114 5.83809
lowerneck -2.06747 1.1398 5.29546
upperneck 16.9045 -3.3717 17.8075
head 5.74497 -0.819409 4.54179
rclavicle -1.59028e-015 6.36111e-015
rhumerus -21.8496 19.869 -89.4741
rradius 145.674
rwrist -2.55901
rhand -0.907765 -22.5744
rfingers 7.12502
rthumb 24.7206 -50.9972
lclavicle -1.59028e-015 6.36111e-015
lhumerus -45.0708 7.59424 87.58
lradius 121.347
lwrist 7.16848
lhand 10.0607 40.238
lfingers 7.12502
lthumb 35.1839 66.7509
rfemur 10.4085 2.59857 24.4095
rtibia 47.6041
rfoot -30.8824 -10.4538
rtoes -4.17795
lfemur 19.2384 10.2996 -1.76258
ltibia 38.2636
lfoot -26.6464 10.5959
ltoes -10.748
1622
root 2.17266 15.1443 -25.7873 148.444 -55.9308 -173.028
lowerback -1.23479 -5.31958 -0.515249
upperback -4.74963 -7.25507 5.13485
thorax -3.49195 -3.6301 5.7128
lowerneck -2.15751 1.07962 5.44324
upperneck 16.7761 -3.47158 17.8487
head 5.72995 -0.864411 4.52188
rclavicle 4.37326e-014 1.74931e-014
rhumerus -21.8011 19.6485 -89.4989
rradius 145.693
rwrist -2.44766
rhand -0.996964 -22.517
rfingers 7.12502
rthumb 24.6351 -50.9515
lclavicle 4.37326e-014 1.74931e-014
lhumerus -44.9162 7.28356 87.5548
lradius 121.327
lwrist 7.27113
lhand 10.0003 40.2547
lfingers 7.12502
lthumb 35.1266 66.7811
rfemur 10.1986 2.5646 24.5235
rtibia 47.605
rfoot -30.8144 -10.3582
rtoes -4.05688
lfemur 19.0371 10.416 -1.56503
ltibia 38.358
lfoot -26.6335 10.5072
ltoes -10.7457
1623
root 2.18253 15.1471 -25.788 148.449 -55.7974 -172.873
lowerback -1.23499 -5.2916 -0.410147
upperback -4.70096 -7.21586 5.10477
thorax -3.46103 -3.61467 5.6198
lowerneck -2.22136 1.03603 5.55041
upperneck 16.6502 -3.53762 17.8842
head 5.70795 -0.89602 4.50896
rclavicle -7.23576e-014 -5.88403e-014
rhumerus -21.7446 19.4744 -89.5086
rradius 145.708
rwrist -2.35921
rhand -1.09395 -22.4568
rfingers 7.12502
rthumb 24.5422 -50.904
lclavicle -7.23576e-014 -5.88403e-014
lhumerus -44.7564 7.03955 87.5234
lradius 121.3
lwrist 7.38256
lhand 9.96444 40.28
lfingers 7.12502
lthumb 35.0926 66.8144
rfemur 9.99338 2.5193 24.6219
rtibia 47.6179
rfoot -30.7452 -10.2752
rtoes -3.9768
lfemur 18.8322 10.5375 -1.36721
ltibia 38.4724
lfoot -26.6227 10.4027
ltoes -10.747
1624
root 2.19278 15.1488 -25.7885 148.458 -55.6824 -172.736
lowerback -1.20726 -5.28306 -0.347075
upperback -4.65887 -7.20332 5.10153
thorax -3.44175 -3.61096 5.58154
lowerneck -2.24213 1.01634 5.59003
upperneck 16.546 -3.55666 17.9076
head 5.68077 -0.908934 4.50655
rclavicle -1.37559e-013 -3.81667e-014
rhumerus -21.6899 19.3818 -89.4998
rradius 145.717
rwrist -2.29485
rhand -1.17054 -22.4126
rfingers 7.12502
rthumb 24.4687 -50.8697
lclavicle -1.37559e-013 -3.81667e-014
lhumerus -44.6217 6.90515 87.4995
lradius 121.277
lwrist 7.48958
lhand 9.94254 40.3043
lfingers 7.12502
lthumb 35.0718 66.8435
rfemur 9.79408 2.45829 24.6958
rtibia 47.6428
rfoot -30.6798 -10.1869
rtoes -3.94241
lfemur 18.6263 10.6626 -1.17795
ltibia 38.6024
lfoot -26.6144 10.2925
ltoes -10.763
1625
root 2.20312 15.1496 -25.7888 148.483 -55.6008 -172.637
lowerback -1.14915 -5.29498 -0.339665
upperback -4.62448 -7.21843 5.1179
thorax -3.43592 -3.61889 5.5983
lowerneck -2.22969 1.01744 5.56751
upperneck 16.4812 -3.53812 17.9136
head 5.65644 -0.906027 4.51187
rclavicle 4.77083e-015 3.18055e-014
rhumerus -21.643 19.3695 -89.4794
rradius 145.716
rwrist -2.2424
rhand -1.24252 -22.3751
rfingers 7.12502
rthumb 24.3997 -50.8415
lclavicle 4.77083e-015 3.18055e-014
lhumerus -44.5182 6.87733 87.4875
lradius 121.256
lwrist 7.57441
lhand 9.93598 40.3129
lfingers 7.12502
lthumb 35.0656 66.8537
rfemur 9.60765 2.37795 24.7268
rtibia 47.6796
rfoot -30.6212 -10.0896
rtoes -3.90981
lfemur 18.4236 10.7816 -1.02055
ltibia 38.7449
lfoot -26.6118 10.179
ltoes -10.777
1626
root 2.21373 15.1492 -25.7887 148.498 -55.5367 -172.534
lowerback -1.06162 -5.32647 -0.361015
upperback -4.6064 -7.26057 5.16423
thorax -3.45392 -3.63913 5.66682
lowerneck -2.17853 1.03848 5.48026
upperneck 16.463 -3.48406 17.9007
head 5.63639 -0.888409 4.52482
rclavicle -5.88403e-014 5.08889e-014
rhumerus -21.6158 19.441 -89.4494
rradius 145.707
rwrist -2.19819
rhand -1.29192 -22.3499
rfingers 7.12502
rthumb 24.3524 -50.8227
lclavicle -5.88403e-014 5.08889e-014
lhumerus -44.4602 6.95496 87.4979
lradius 121.243
lwrist 7.62931
lhand 9.90489 40.3068
lfingers 7.12502
lthumb 35.0361 66.8544
rfemur 9.4229 2.27857 24.7457
rtibia 47.7273
rfoot -30.5643 -9.98457
rtoes -3.89427
lfemur 18.2118 10.8965 -0.865411
ltibia 38.9054
lfoot -26.6138 10.0634
ltoes -10.7998
1627
root 2.22458 15.1479 -25.7883 148.491 -55.4828 -172.414
lowerback -0.945748 -5.34941 -0.373463
upperback -4.59584 -7.29012 5.20165
thorax -3.49905 -3.65261 5.72524
lowerneck -2.13876 1.05445 5.40764
upperneck 16.4944 -3.44909 17.8719
head 5.63537 -0.876635 4.53008
rclavicle -8.74653e-014 2.22639e-014
rhumerus -21.6176 19.5008 -89.4346
rradius 145.694
rwrist -2.14186
rhand -1.33174 -22.3229
rfingers 7.12502
rthumb 24.3142 -50.8008
lclavicle -8.74653e-014 2.22639e-014
lhumerus -44.4246 7.0316 87.5084
lradius 121.222
lwrist 7.6449
lhand 9.88459 40.2794
lfingers 7.12502
lthumb 35.0169 66.8315
rfemur 9.24196 2.1708 24.7716
rtibia 47.7835
rfoot -30.5121 -9.87821
rtoes -3.86512
lfemur 17.9924 11.0065 -0.700944
ltibia 39.0842
lfoot -26.6203 9.94765
ltoes -10.8418
1628
root 2.23585 15.146 -25.7877 148.444 -55.4242 -172.25
lowerback -0.808761 -5.355 -0.352761
upperback -4.58775 -7.29505 5.22579
thorax -3.56672 -3.65425 5.75445
lowerneck -2.11552 1.05995 5.37076
upperneck 16.5621 -3.44279 17.8335
head 5.65111 -0.874919 4.52537
rclavicle 6.36111e-015 -1.03368e-013
rhumerus -21.6478 19.5282 -89.4443
rradius 145.679
rwrist -2.07395
rhand -1.3493 -22.2975
rfingers 7.12502
rthumb 24.2974 -50.7776
lclavicle 6.36111e-015 -1.03368e-013
lhumerus -44.4013 7.07099 87.5213
lradius 121.195
lwrist 7.61582
lhand 9.82456 40.2295
lfingers 7.12502
lthumb 34.9599 66.7949
rfemur 9.06193 2.06939 24.8362
rtibia 47.8453
rfoot -30.4727 -9.77717
rtoes -3.82129
lfemur 17.7625 11.1158 -0.502716
ltibia 39.284
lfoot -26.6317 9.82582
ltoes -10.8941
1629
root 2.24718 15.1434 -25.7869 148.362 -55.3721 -172.061
lowerback -0.659047 -5.34492 -0.308078
upperback -4.57203 -7.27731 5.22878
thorax -3.64135 -3.64492 5.74928
lowerneck -2.11451 1.05661 5.36929
upperneck 16.6643 -3.46497 17.794
head 5.68428 -0.882639 4.51347
rclavicle -4.92986e-014 -1.09729e-013
rhumerus -21.694 19.5178 -89.4725
rradius 145.661
rwrist -2.00027
rhand -1.35174 -22.2693
rfingers 7.12502
rthumb 24.295 -50.7498
lclavicle -4.92986e-014 -1.09729e-013
lhumerus -44.378 7.06838 87.5327
lradius 121.16
lwrist 7.53937
lhand 9.76244 40.1667
lfingers 7.12502
lthumb 34.901 66.7458
rfemur 8.89547 1.96786 24.922
rtibia 47.9105
rfoot -30.4409 -9.68653
rtoes -3.76177
lfemur 17.5344 11.2144 -0.288804
ltibia 39.4971
lfoot -26.6458 9.70225
ltoes -10.9544
1630
root 2.25871 15.1404 -25.7863 148.247 -55.3075 -171.843
lowerback -0.505614 -5.31742 -0.2361
upperback -4.54851 -7.23512 5.22043
thorax -3.71699 -3.62418 5.71689
lowerneck -2.12417 1.04634 5.39514
upperneck 16.7854 -3.50723 17.7556
head 5.7272 -0.897474 4.49661
rclavicle 4.92986e-014 2.54444e-014
rhumerus -21.749 19.4809 -89.5112
rradius 145.645
rwrist -1.93542
rhand -1.33382 -22.2526
rfingers 7.12502
rthumb 24.3122 -50.7307
lclavicle 4.92986e-014 2.54444e-014
lhumerus -44.3527 7.0351 87.5443
lradius 121.117
lwrist 7.42765
lhand 9.69915 40.1064
lfingers 7.12502
lthumb 34.8409 66.6994
rfemur 8.73587 1.88107 25.0437
rtibia 47.9773
rfoot -30.4183 -9.61085
rtoes -3.70586
lfemur 17.313 11.3167 -0.0447049
ltibia 39.7164
lfoot -26.6624 9.57452
ltoes -11.0129
1631
root 2.26974 15.1373 -25.7858 148.126 -55.2563 -171.636
lowerback -0.347908 -5.3007 -0.18693
upperback -4.52537 -7.20788 5.22621
thorax -3.7895 -3.6103 5.71227
lowerneck -2.11356 1.05321 5.38225
upperneck 16.9416 -3.52566 17.717
head 5.77557 -0.901412 4.48831
rclavicle -3.18055e-015 -5.56597e-014
rhumerus -21.8122 19.5007 -89.5368
rradius 145.631
rwrist -1.89831
rhand -1.31582 -22.2431
rfingers 7.12502
rthumb 24.3295 -50.719
lclavicle -3.18055e-015 -5.56597e-014
lhumerus -44.3527 7.06789 87.5699
lradius 121.077
lwrist 7.28591
lhand 9.64166 40.0471
lfingers 7.12502
lthumb 34.7864 66.6528
rfemur 8.59595 1.80373 25.1659
rtibia 48.0447
rfoot -30.4039 -9.56273
rtoes -3.66376
lfemur 17.1095 11.4093 0.188689
ltibia 39.9296
lfoot -26.6804 9.44775
ltoes -11.0658
